<?xml version="1.0" standalone="no"?>
<!DOCTYPE svg PUBLIC "-//W3C//DTD SVG 20010904//EN"
 "http://www.w3.org/TR/2001/REC-SVG-20010904/DTD/svg10.dtd">
<svg version="1.0" xmlns="http://www.w3.org/2000/svg"
 width="452.000000pt" height="292.000000pt" viewBox="0 0 452.000000 292.000000"
 preserveAspectRatio="xMidYMid meet">

<g transform="translate(0.000000,292.000000) scale(0.100000,-0.100000)"
fill="#000000" stroke="none">
<path d="M1002 2541 c-371 -148 -675 -271 -678 -273 -4 -4 524 -1329 542
-1361 8 -13 60 5 326 111 l318 127 0 528 0 527 65 0 65 0 2 -379 3 -380 212
218 211 217 -186 464 c-103 255 -191 465 -197 466 -5 2 -313 -117 -683 -265z"/>
<path d="M2790 1571 l0 -631 65 0 65 0 0 200 0 200 223 0 222 -1 140 -199 140
-199 73 -1 c56 0 71 3 66 12 -5 7 -64 92 -132 188 -69 96 -133 187 -144 202
l-19 27 55 26 c81 38 150 105 188 183 32 64 33 70 33 192 0 118 -2 128 -29
185 -52 106 -141 177 -276 221 -46 15 -103 18 -362 22 l-308 4 0 -631z m618
495 c60 -16 127 -53 159 -88 47 -50 68 -116 67 -213 0 -109 -23 -165 -92 -225
-78 -69 -139 -82 -399 -88 l-223 -4 0 316 0 316 218 0 c154 0 232 -4 270 -14z"/>
<path d="M2051 1696 l-64 -64 19 -24 c11 -13 52 -63 92 -110 71 -84 74 -86
103 -76 16 5 31 13 34 18 2 4 -24 77 -58 163 l-63 157 -63 -64z"/>
<path d="M1767 1402 c-119 -119 -127 -130 -127 -166 0 -26 4 -37 13 -33 244
97 374 150 381 157 7 7 -119 167 -134 169 -3 1 -63 -56 -133 -127z"/>
<path d="M2550 695 c-26 -27 -30 -35 -16 -35 16 0 106 55 106 65 0 3 -13 5
-28 5 -19 0 -39 -11 -62 -35z"/>
<path d="M1780 621 c-107 -35 -160 -106 -160 -214 0 -145 140 -245 283 -203
61 18 98 49 79 68 -9 9 -21 7 -51 -10 -45 -26 -127 -30 -169 -8 -85 44 -120
151 -77 239 38 80 157 112 246 67 40 -21 59 -20 59 4 0 36 -149 77 -210 57z"/>
<path d="M3365 616 c-59 -18 -93 -44 -120 -91 -55 -94 -39 -204 41 -274 73
-64 167 -75 256 -30 45 23 52 33 34 48 -11 9 -23 7 -55 -10 -58 -30 -145 -24
-194 14 -66 50 -87 172 -40 235 36 49 70 66 136 70 48 2 71 -1 102 -17 33 -18
41 -19 53 -7 12 11 9 16 -15 34 -32 22 -95 42 -133 41 -14 0 -43 -6 -65 -13z"/>
<path d="M3814 621 c-89 -23 -152 -94 -161 -183 -7 -72 9 -120 60 -175 120
-131 342 -68 378 107 15 69 1 126 -43 176 -56 64 -154 95 -234 75z m165 -70
c39 -28 70 -91 71 -141 0 -55 -38 -121 -85 -147 -55 -31 -140 -31 -185 -1 -55
38 -74 71 -78 141 -3 53 0 67 20 97 13 19 39 45 58 58 48 32 149 29 199 -7z"/>
<path d="M4259 621 c-49 -16 -71 -33 -85 -66 -30 -73 12 -133 114 -160 96 -26
127 -45 130 -82 4 -41 -26 -72 -70 -74 -63 -3 -103 3 -139 22 -20 10 -39 15
-43 12 -31 -32 53 -77 144 -77 104 0 160 41 160 117 0 54 -39 88 -127 112
-122 32 -156 69 -116 123 32 43 117 50 185 16 22 -12 27 -11 32 2 9 22 9 22
-23 39 -36 18 -127 27 -162 16z"/>
<path d="M1290 503 c-30 -65 -73 -160 -96 -210 l-43 -93 25 0 c21 0 29 9 49
55 l25 55 119 0 119 0 23 -55 c18 -44 27 -55 46 -55 13 0 23 4 23 8 0 8 -169
378 -183 400 -5 6 -19 12 -31 12 -20 0 -31 -17 -76 -117z m129 -151 c-27 -2
-71 -2 -98 0 l-50 3 47 108 47 107 52 -107 51 -108 -49 -3z"/>
<path d="M2090 410 l0 -210 25 0 c24 0 25 2 25 65 l0 65 73 0 73 0 47 -65 c37
-51 53 -65 72 -65 25 0 24 2 -25 72 l-50 71 29 18 c44 27 61 58 61 112 0 63
-21 102 -70 127 -32 16 -59 20 -150 20 l-110 0 0 -210z m253 142 c46 -44 41
-124 -10 -157 -28 -19 -127 -31 -167 -21 -26 6 -26 7 -26 107 l0 101 89 -4
c77 -3 93 -6 114 -26z"/>
<path d="M2530 410 c0 -203 1 -210 20 -210 19 0 20 7 20 210 0 203 -1 210 -20
210 -19 0 -20 -7 -20 -210z"/>
<path d="M2710 410 l0 -210 146 0 c129 0 145 2 140 16 -3 9 -6 18 -6 20 0 2
-52 4 -115 4 l-115 0 0 190 0 190 -25 0 -25 0 0 -210z"/>
<path d="M3070 410 c0 -203 1 -210 20 -210 19 0 20 7 20 210 0 203 -1 210 -20
210 -19 0 -20 -7 -20 -210z"/>
</g>
</svg>
